/* XPM */
static char *x_xpm[]={
/* width height num_colors chars_per_pixel */
"28 28 2 1",
/* colors */
". c None",
"# c #ff0000",
/* pixels */
"............................",
"............................",
"............................",
"............................",
".########..............##...",
"..########............##....",
"...########..........##.....",
"....########........##......",
".....########......##.......",
"......########....##........",
".......########..##.........",
"........######..##..........",
".........####..##...........",
"..........##..####..........",
".........##..######.........",
"........##..########........",
".......##....########.......",
"......##......########......",
".....##........########.....",
"....##..........########....",
"...##............########...",
"..##..............########..",
".##................########.",
"............................",
"............................",
"............................",
"............................",
"............................"};
